<svg width="20" height="20" viewBox="0 0 20 20" fill="none" xmlns="http://www.w3.org/2000/svg">
<path d="M0 10C0 4.47715 4.47715 0 10 0C15.5228 0 20 4.47715 20 10C20 15.5228 15.5228 20 10 20C4.47715 20 0 15.5228 0 10Z" fill="white"/>
<path d="M10 20C4.477 20 0 15.523 0 10C0 4.477 4.477 0 10 0C15.523 0 20 4.477 20 10C20 15.523 15.523 20 10 20ZM10 18C12.1217 18 14.1566 17.1571 15.6569 15.6569C17.1571 14.1566 18 12.1217 18 10C18 7.87827 17.1571 5.84344 15.6569 4.34315C14.1566 2.84285 12.1217 2 10 2C7.87827 2 5.84344 2.84285 4.34315 4.34315C2.84285 5.84344 2 7.87827 2 10C2 12.1217 2.84285 14.1566 4.34315 15.6569C5.84344 17.1571 7.87827 18 10 18ZM5 15C5 13.6739 5.52678 12.4021 6.46447 11.4645C7.40215 10.5268 8.67392 10 10 10C11.3261 10 12.5979 10.5268 13.5355 11.4645C14.4732 12.4021 15 13.6739 15 15H13C13 14.2044 12.6839 13.4413 12.1213 12.8787C11.5587 12.3161 10.7956 12 10 12C9.20435 12 8.44129 12.3161 7.87868 12.8787C7.31607 13.4413 7 14.2044 7 15H5ZM6 9C5.60218 9 5.22064 8.84196 4.93934 8.56066C4.65804 8.27936 4.5 7.89782 4.5 7.5C4.5 7.10218 4.65804 6.72064 4.93934 6.43934C5.22064 6.15804 5.60218 6 6 6C6.39782 6 6.77936 6.15804 7.06066 6.43934C7.34196 6.72064 7.5 7.10218 7.5 7.5C7.5 7.89782 7.34196 8.27936 7.06066 8.56066C6.77936 8.84196 6.39782 9 6 9ZM14 9C13.6022 9 13.2206 8.84196 12.9393 8.56066C12.658 8.27936 12.5 7.89782 12.5 7.5C12.5 7.10218 12.658 6.72064 12.9393 6.43934C13.2206 6.15804 13.6022 6 14 6C14.3978 6 14.7794 6.15804 15.0607 6.43934C15.342 6.72064 15.5 7.10218 15.5 7.5C15.5 7.89782 15.342 8.27936 15.0607 8.56066C14.7794 8.84196 14.3978 9 14 9Z" fill="#EB5757"/>
</svg>
