<svg width="96" height="48" viewBox="0 0 96 48" fill="none" xmlns="http://www.w3.org/2000/svg">
<path fill-rule="evenodd" clip-rule="evenodd" d="M8 16C6.9 16 6 15.1 6 14C6 12.9 6.9 12 8 12H40C41.1 12 42 12.9 42 14C42 15.1 41.1 16 40 16H8ZM8 26H40C41.1 26 42 25.1 42 24C42 22.9 41.1 22 40 22H8C6.9 22 6 22.9 6 24C6 25.1 6.9 26 8 26ZM8 36H40C41.1 36 42 35.1 42 34C42 32.9 41.1 32 40 32H8C6.9 32 6 32.9 6 34C6 35.1 6.9 36 8 36Z" fill="white"/>
<path fill-rule="evenodd" clip-rule="evenodd" d="M56 16C54.9 16 54 15.1 54 14C54 12.9 54.9 12 56 12H88C89.1 12 90 12.9 90 14C90 15.1 89.1 16 88 16H56ZM56 26H88C89.1 26 90 25.1 90 24C90 22.9 89.1 22 88 22H56C54.9 22 54 22.9 54 24C54 25.1 54.9 26 56 26ZM56 36H88C89.1 36 90 35.1 90 34C90 32.9 89.1 32 88 32H56C54.9 32 54 32.9 54 34C54 35.1 54.9 36 56 36Z" fill="#333333"/>
</svg>
